<?xml version="1.0" encoding="UTF-8" standalone="no"?>
<!DOCTYPE svg PUBLIC "-//W3C//DTD SVG 1.1//EN"
 "http://www.w3.org/Graphics/SVG/1.1/DTD/svg11.dtd">
<!-- Generated by graphviz version 2.40.1 (20161225.0304)
 -->
<!-- Title: FSM Pages: 1 -->
<svg width="2164pt" height="3419pt"
 viewBox="0.00 0.00 2164.33 3418.75" xmlns="http://www.w3.org/2000/svg" xmlns:xlink="http://www.w3.org/1999/xlink">
<g id="graph0" class="graph" transform="scale(1 1) rotate(0) translate(4 3414.7532)">
<title>FSM</title>
<polygon fill="#ffffff" stroke="transparent" points="-4,4 -4,-3414.7532 2160.326,-3414.7532 2160.326,4 -4,4"/>
<!-- S -->
<g id="node1" class="node">
<title>S</title>
<ellipse fill="none" stroke="#000000" cx="1033.3995" cy="-1647.1643" rx="27" ry="18"/>
<text text-anchor="middle" x="1033.3995" y="-1642.9643" font-family="Times,serif" font-size="14.00" fill="#000000">S</text>
</g>
<!-- variable -->
<g id="node2" class="node">
<title>variable</title>
<ellipse fill="none" stroke="#000000" cx="2026.1201" cy="-1647.1643" rx="42.2601" ry="18"/>
<ellipse fill="none" stroke="#000000" cx="2026.1201" cy="-1647.1643" rx="46.2719" ry="22"/>
<text text-anchor="middle" x="2026.1201" y="-1642.9643" font-family="Times,serif" font-size="14.00" fill="#000000">variable</text>
</g>
<!-- S&#45;&gt;variable -->
<g id="edge1" class="edge">
<title>S&#45;&gt;variable</title>
<path fill="none" stroke="#000000" d="M1060.4672,-1647.1643C1194.0505,-1647.1643 1784.0309,-1647.1643 1969.8646,-1647.1643"/>
<polygon fill="#000000" stroke="#000000" points="1969.9653,-1650.6644 1979.9653,-1647.1643 1969.9652,-1643.6644 1969.9653,-1650.6644"/>
<text text-anchor="middle" x="1511.6659" y="-1651.3643" font-family="Times,serif" font-size="14.00" fill="#000000">$</text>
</g>
<!-- keyword -->
<g id="node3" class="node">
<title>keyword</title>
<ellipse fill="none" stroke="#000000" cx="2012.1133" cy="-1895.6846" rx="44.6616" ry="18"/>
<ellipse fill="none" stroke="#000000" cx="2012.1133" cy="-1895.6846" rx="48.6472" ry="22"/>
<text text-anchor="middle" x="2012.1133" y="-1891.4846" font-family="Times,serif" font-size="14.00" fill="#000000">keyword</text>
</g>
<!-- S&#45;&gt;keyword -->
<g id="edge3" class="edge">
<title>S&#45;&gt;keyword</title>
<path fill="none" stroke="#000000" d="M1059.0746,-1653.6838C1189.4653,-1686.7933 1779.1634,-1836.5327 1959.5342,-1882.3334"/>
<polygon fill="#000000" stroke="#000000" points="1958.7656,-1885.7493 1969.3194,-1884.8182 1960.4884,-1878.9646 1958.7656,-1885.7493"/>
<text text-anchor="middle" x="1489.0996" y="-1772.2086" font-family="Times,serif" font-size="14.00" fill="#000000">a&#45;zA&#45;Z</text>
</g>
<!-- integer -->
<g id="node4" class="node">
<title>integer</title>
<ellipse fill="none" stroke="#000000" cx="1868.1326" cy="-2195.2783" rx="37.713" ry="18"/>
<ellipse fill="none" stroke="#000000" cx="1868.1326" cy="-2195.2783" rx="41.6986" ry="22"/>
<text text-anchor="middle" x="1868.1326" y="-2191.0783" font-family="Times,serif" font-size="14.00" fill="#000000">integer</text>
</g>
<!-- S&#45;&gt;integer -->
<g id="edge5" class="edge">
<title>S&#45;&gt;integer</title>
<path fill="none" stroke="#000000" d="M1052.8043,-1659.9061C1161.1794,-1731.0689 1691.766,-2079.47 1833.3506,-2172.4393"/>
<polygon fill="#000000" stroke="#000000" points="1831.4446,-2175.3748 1841.7247,-2177.938 1835.2868,-2169.5235 1831.4446,-2175.3748"/>
<text text-anchor="middle" x="1433.7471" y="-1920.3727" font-family="Times,serif" font-size="14.00" fill="#000000">0&#45;9</text>
</g>
<!-- semicolon -->
<g id="node6" class="node">
<title>semicolon</title>
<ellipse fill="none" stroke="#000000" cx="1814.4644" cy="-2563.5262" rx="50.9449" ry="18"/>
<ellipse fill="none" stroke="#000000" cx="1814.4644" cy="-2563.5262" rx="54.9618" ry="22"/>
<text text-anchor="middle" x="1814.4644" y="-2559.3262" font-family="Times,serif" font-size="14.00" fill="#000000">semicolon</text>
</g>
<!-- S&#45;&gt;semicolon -->
<g id="edge9" class="edge">
<title>S&#45;&gt;semicolon</title>
<path fill="none" stroke="#000000" d="M1046.9563,-1663.0694C1138.7171,-1770.7251 1668.8637,-2392.7044 1789.875,-2534.6775"/>
<polygon fill="#000000" stroke="#000000" points="1787.4623,-2537.2425 1796.613,-2542.5826 1792.7897,-2532.7016 1787.4623,-2537.2425"/>
<text text-anchor="middle" x="1416.4703" y="-2103.0734" font-family="Times,serif" font-size="14.00" fill="#000000">;</text>
</g>
<!-- colon -->
<g id="node7" class="node">
<title>colon</title>
<ellipse fill="none" stroke="#000000" cx="1703.6399" cy="-2742.3659" rx="32.4855" ry="18"/>
<ellipse fill="none" stroke="#000000" cx="1703.6399" cy="-2742.3659" rx="36.4846" ry="22"/>
<text text-anchor="middle" x="1703.6399" y="-2738.1659" font-family="Times,serif" font-size="14.00" fill="#000000">colon</text>
</g>
<!-- S&#45;&gt;colon -->
<g id="edge10" class="edge">
<title>S&#45;&gt;colon</title>
<path fill="none" stroke="#000000" d="M1043.6591,-1663.929C1118.9895,-1787.022 1586.4276,-2550.836 1685.287,-2712.3766"/>
<polygon fill="#000000" stroke="#000000" points="1682.5449,-2714.601 1690.7502,-2721.3036 1688.5156,-2710.9471 1682.5449,-2714.601"/>
<text text-anchor="middle" x="1362.5278" y="-2192.3528" font-family="Times,serif" font-size="14.00" fill="#000000">:</text>
</g>
<!-- assign -->
<g id="node8" class="node">
<title>assign</title>
<ellipse fill="none" stroke="#000000" cx="1380.5072" cy="-2777.8273" rx="35.3328" ry="18"/>
<ellipse fill="none" stroke="#000000" cx="1380.5072" cy="-2777.8273" rx="39.3508" ry="22"/>
<text text-anchor="middle" x="1380.5072" y="-2773.6273" font-family="Times,serif" font-size="14.00" fill="#000000">assign</text>
</g>
<!-- S&#45;&gt;assign -->
<g id="edge11" class="edge">
<title>S&#45;&gt;assign</title>
<path fill="none" stroke="#000000" d="M1038.8517,-1664.9243C1078.2618,-1793.298 1319.4448,-2578.9236 1370.8686,-2746.4307"/>
<polygon fill="#000000" stroke="#000000" points="1367.5648,-2747.595 1373.8455,-2756.1274 1374.2565,-2745.5406 1367.5648,-2747.595"/>
<text text-anchor="middle" x="1200.9129" y="-2209.8775" font-family="Times,serif" font-size="14.00" fill="#000000">=</text>
</g>
<!-- exclMark -->
<g id="node11" class="node">
<title>exclMark</title>
<ellipse fill="none" stroke="#000000" cx="982.2644" cy="-2883.3248" rx="48.0695" ry="18"/>
<ellipse fill="none" stroke="#000000" cx="982.2644" cy="-2883.3248" rx="52.0723" ry="22"/>
<text text-anchor="middle" x="982.2644" y="-2879.1248" font-family="Times,serif" font-size="14.00" fill="#000000">exclMark</text>
</g>
<!-- S&#45;&gt;exclMark -->
<g id="edge14" class="edge">
<title>S&#45;&gt;exclMark</title>
<path fill="none" stroke="#000000" d="M1032.6369,-1665.5981C1026.9389,-1803.3435 991.0305,-2671.4085 983.6065,-2850.8802"/>
<polygon fill="#000000" stroke="#000000" points="980.1041,-2850.8689 983.1877,-2861.005 987.0981,-2851.1583 980.1041,-2850.8689"/>
<text text-anchor="middle" x="1005.7914" y="-2262.4391" font-family="Times,serif" font-size="14.00" fill="#000000">!</text>
</g>
<!-- stringRead -->
<g id="node14" class="node">
<title>stringRead</title>
<ellipse fill="none" stroke="#000000" cx="609.2373" cy="-2867.5889" rx="52.7469" ry="18"/>
<text text-anchor="middle" x="609.2373" y="-2863.3889" font-family="Times,serif" font-size="14.00" fill="#000000">stringRead</text>
</g>
<!-- S&#45;&gt;stringRead -->
<g id="edge17" class="edge">
<title>S&#45;&gt;stringRead</title>
<path fill="none" stroke="#000000" d="M1027.2399,-1664.887C980.0902,-1800.5489 676.6378,-2673.6603 618.7651,-2840.1749"/>
<polygon fill="#000000" stroke="#000000" points="615.4346,-2839.0966 615.4576,-2849.6914 622.0466,-2841.3947 615.4346,-2839.0966"/>
<text text-anchor="middle" x="820.1472" y="-2256.7309" font-family="Times,serif" font-size="14.00" fill="#000000">&quot;</text>
</g>
<!-- comma -->
<g id="node16" class="node">
<title>comma</title>
<ellipse fill="none" stroke="#000000" cx="376.9615" cy="-2760.9071" rx="39.4288" ry="18"/>
<ellipse fill="none" stroke="#000000" cx="376.9615" cy="-2760.9071" rx="43.4254" ry="22"/>
<text text-anchor="middle" x="376.9615" y="-2756.7071" font-family="Times,serif" font-size="14.00" fill="#000000">comma</text>
</g>
<!-- S&#45;&gt;comma -->
<g id="edge20" class="edge">
<title>S&#45;&gt;comma</title>
<path fill="none" stroke="#000000" d="M1023.3511,-1664.2128C949.572,-1789.3897 491.76,-2566.1347 394.9363,-2730.4101"/>
<polygon fill="#000000" stroke="#000000" points="391.6482,-2729.0961 389.5857,-2739.4882 397.6786,-2732.6505 391.6482,-2729.0961"/>
<text text-anchor="middle" x="707.3937" y="-2201.5115" font-family="Times,serif" font-size="14.00" fill="#000000">,</text>
</g>
<!-- dot -->
<g id="node17" class="node">
<title>dot</title>
<ellipse fill="none" stroke="#000000" cx="274.62" cy="-2604.4903" rx="27" ry="18"/>
<ellipse fill="none" stroke="#000000" cx="274.62" cy="-2604.4903" rx="31" ry="22"/>
<text text-anchor="middle" x="274.62" y="-2600.2903" font-family="Times,serif" font-size="14.00" fill="#000000">dot</text>
</g>
<!-- S&#45;&gt;dot -->
<g id="edge21" class="edge">
<title>S&#45;&gt;dot</title>
<path fill="none" stroke="#000000" d="M1020.5478,-1663.3788C931.76,-1775.3992 409.6303,-2434.1524 296.3124,-2577.1217"/>
<polygon fill="#000000" stroke="#000000" points="293.5024,-2575.0323 290.0337,-2585.0433 298.9882,-2579.3804 293.5024,-2575.0323"/>
<text text-anchor="middle" x="656.6801" y="-2124.4502" font-family="Times,serif" font-size="14.00" fill="#000000">.</text>
</g>
<!-- Lbracket -->
<g id="node18" class="node">
<title>Lbracket</title>
<ellipse fill="none" stroke="#000000" cx="185.6856" cy="-2419.7662" rx="45.2154" ry="18"/>
<ellipse fill="none" stroke="#000000" cx="185.6856" cy="-2419.7662" rx="49.2034" ry="22"/>
<text text-anchor="middle" x="185.6856" y="-2415.5662" font-family="Times,serif" font-size="14.00" fill="#000000">Lbracket</text>
</g>
<!-- S&#45;&gt;Lbracket -->
<g id="edge22" class="edge">
<title>S&#45;&gt;Lbracket</title>
<path fill="none" stroke="#000000" d="M1017.2222,-1661.9081C914.3217,-1755.6911 351.0743,-2269.0317 215.1927,-2392.8735"/>
<polygon fill="#000000" stroke="#000000" points="212.6214,-2390.4814 207.5881,-2399.8043 217.3367,-2395.6551 212.6214,-2390.4814"/>
<text text-anchor="middle" x="613.8772" y="-2031.5908" font-family="Times,serif" font-size="14.00" fill="#000000">(</text>
</g>
<!-- Rbracket -->
<g id="node19" class="node">
<title>Rbracket</title>
<ellipse fill="none" stroke="#000000" cx="109.5947" cy="-2190.688" rx="45.7934" ry="18"/>
<ellipse fill="none" stroke="#000000" cx="109.5947" cy="-2190.688" rx="49.7848" ry="22"/>
<text text-anchor="middle" x="109.5947" y="-2186.488" font-family="Times,serif" font-size="14.00" fill="#000000">Rbracket</text>
</g>
<!-- S&#45;&gt;Rbracket -->
<g id="edge23" class="edge">
<title>S&#45;&gt;Rbracket</title>
<path fill="none" stroke="#000000" d="M1012.8092,-1659.2786C895.0879,-1728.5404 307,-2074.5439 148.8229,-2167.608"/>
<polygon fill="#000000" stroke="#000000" points="146.733,-2164.7766 139.8889,-2172.8643 150.2827,-2170.8099 146.733,-2164.7766"/>
<text text-anchor="middle" x="578.4857" y="-1917.6433" font-family="Times,serif" font-size="14.00" fill="#000000">)</text>
</g>
<!-- Lcurly -->
<g id="node20" class="node">
<title>Lcurly</title>
<ellipse fill="none" stroke="#000000" cx="62.6835" cy="-1958.026" rx="36.579" ry="18"/>
<ellipse fill="none" stroke="#000000" cx="62.6835" cy="-1958.026" rx="40.5573" ry="22"/>
<text text-anchor="middle" x="62.6835" y="-1953.826" font-family="Times,serif" font-size="14.00" fill="#000000">Lcurly</text>
</g>
<!-- S&#45;&gt;Lcurly -->
<g id="edge24" class="edge">
<title>S&#45;&gt;Lcurly</title>
<path fill="none" stroke="#000000" d="M1008.9186,-1655.004C879.836,-1696.3413 277.7567,-1889.151 107.5876,-1943.6459"/>
<polygon fill="#000000" stroke="#000000" points="106.3955,-1940.3525 97.9394,-1946.7356 108.5305,-1947.019 106.3955,-1940.3525"/>
<text text-anchor="middle" x="554.8938" y="-1803.5249" font-family="Times,serif" font-size="14.00" fill="#000000">{</text>
</g>
<!-- Rcurly -->
<g id="node21" class="node">
<title>Rcurly</title>
<ellipse fill="none" stroke="#000000" cx="42.2192" cy="-1729.8407" rx="37.1559" ry="18"/>
<ellipse fill="none" stroke="#000000" cx="42.2192" cy="-1729.8407" rx="41.1385" ry="22"/>
<text text-anchor="middle" x="42.2192" y="-1725.6407" font-family="Times,serif" font-size="14.00" fill="#000000">Rcurly</text>
</g>
<!-- S&#45;&gt;Rcurly -->
<g id="edge25" class="edge">
<title>S&#45;&gt;Rcurly</title>
<path fill="none" stroke="#000000" d="M1006.3737,-1649.4185C871.7615,-1660.6468 272.9738,-1710.5929 93.3328,-1725.5772"/>
<polygon fill="#000000" stroke="#000000" points="92.7777,-1722.1112 83.1033,-1726.4304 93.3596,-1729.087 92.7777,-1722.1112"/>
<text text-anchor="middle" x="546.494" y="-1691.6978" font-family="Times,serif" font-size="14.00" fill="#000000">}</text>
</g>
<!-- Lsquare -->
<g id="node22" class="node">
<title>Lsquare</title>
<ellipse fill="none" stroke="#000000" cx="46.1367" cy="-1491.6949" rx="42.2619" ry="18"/>
<ellipse fill="none" stroke="#000000" cx="46.1367" cy="-1491.6949" rx="46.2738" ry="22"/>
<text text-anchor="middle" x="46.1367" y="-1487.4949" font-family="Times,serif" font-size="14.00" fill="#000000">Lsquare</text>
</g>
<!-- S&#45;&gt;Lsquare -->
<g id="edge26" class="edge">
<title>S&#45;&gt;Lsquare</title>
<path fill="none" stroke="#000000" d="M1006.9926,-1643.0058C874.6472,-1622.1647 282.6721,-1528.9434 99.9974,-1500.1767"/>
<polygon fill="#000000" stroke="#000000" points="100.5043,-1496.7134 90.0815,-1498.6152 99.4153,-1503.6282 100.5043,-1496.7134"/>
<text text-anchor="middle" x="551.1647" y="-1575.7912" font-family="Times,serif" font-size="14.00" fill="#000000">[</text>
</g>
<!-- Rsquare -->
<g id="node23" class="node">
<title>Rsquare</title>
<ellipse fill="none" stroke="#000000" cx="76.8913" cy="-1249.8243" rx="42.8404" ry="18"/>
<ellipse fill="none" stroke="#000000" cx="76.8913" cy="-1249.8243" rx="46.8557" ry="22"/>
<text text-anchor="middle" x="76.8913" y="-1245.6243" font-family="Times,serif" font-size="14.00" fill="#000000">Rsquare</text>
</g>
<!-- S&#45;&gt;Rsquare -->
<g id="edge27" class="edge">
<title>S&#45;&gt;Rsquare</title>
<path fill="none" stroke="#000000" d="M1010.2292,-1637.5392C885.1281,-1585.5713 289.7416,-1338.2437 121.3512,-1268.2932"/>
<polygon fill="#000000" stroke="#000000" points="122.6114,-1265.0267 112.0338,-1264.4227 119.926,-1271.4912 122.6114,-1265.0267"/>
<text text-anchor="middle" x="563.4599" y="-1457.1162" font-family="Times,serif" font-size="14.00" fill="#000000">]</text>
</g>
<!-- add -->
<g id="node24" class="node">
<title>add</title>
<ellipse fill="none" stroke="#000000" cx="127.6494" cy="-1039.4635" rx="27" ry="18"/>
<ellipse fill="none" stroke="#000000" cx="127.6494" cy="-1039.4635" rx="31" ry="22"/>
<text text-anchor="middle" x="127.6494" y="-1035.2635" font-family="Times,serif" font-size="14.00" fill="#000000">add</text>
</g>
<!-- S&#45;&gt;add -->
<g id="edge28" class="edge">
<title>S&#45;&gt;add</title>
<path fill="none" stroke="#000000" d="M1014.0625,-1634.1904C898.7981,-1556.8553 302.4845,-1156.7667 158.8153,-1060.3739"/>
<polygon fill="#000000" stroke="#000000" points="160.6493,-1057.3896 150.3951,-1054.7244 156.7492,-1063.2024 160.6493,-1057.3896"/>
<text text-anchor="middle" x="582.4916" y="-1351.4821" font-family="Times,serif" font-size="14.00" fill="#000000">+</text>
</g>
<!-- sub -->
<g id="node25" class="node">
<title>sub</title>
<ellipse fill="none" stroke="#000000" cx="190.5707" cy="-862.6992" rx="27" ry="18"/>
<ellipse fill="none" stroke="#000000" cx="190.5707" cy="-862.6992" rx="31" ry="22"/>
<text text-anchor="middle" x="190.5707" y="-858.4992" font-family="Times,serif" font-size="14.00" fill="#000000">sub</text>
</g>
<!-- S&#45;&gt;sub -->
<g id="edge29" class="edge">
<title>S&#45;&gt;sub</title>
<path fill="none" stroke="#000000" d="M1017.3154,-1632.194C914.3296,-1536.3397 347.5607,-1008.8181 217.277,-887.5562"/>
<polygon fill="#000000" stroke="#000000" points="219.3806,-884.7326 209.676,-880.4815 214.6114,-889.8566 219.3806,-884.7326"/>
<text text-anchor="middle" x="614.9659" y="-1264.0751" font-family="Times,serif" font-size="14.00" fill="#000000">&#45;</text>
</g>
<!-- mul -->
<g id="node26" class="node">
<title>mul</title>
<ellipse fill="none" stroke="#000000" cx="268.8252" cy="-700.2064" rx="27" ry="18"/>
<ellipse fill="none" stroke="#000000" cx="268.8252" cy="-700.2064" rx="31" ry="22"/>
<text text-anchor="middle" x="268.8252" y="-696.0064" font-family="Times,serif" font-size="14.00" fill="#000000">mul</text>
</g>
<!-- S&#45;&gt;mul -->
<g id="edge30" class="edge">
<title>S&#45;&gt;mul</title>
<path fill="none" stroke="#000000" d="M1020.4496,-1631.1254C930.9838,-1520.3181 404.8666,-868.6995 290.6833,-727.2786"/>
<polygon fill="#000000" stroke="#000000" points="293.3619,-725.0247 284.3567,-719.4429 287.9156,-729.4221 293.3619,-725.0247"/>
<text text-anchor="middle" x="652.0665" y="-1183.402" font-family="Times,serif" font-size="14.00" fill="#000000">*</text>
</g>
<!-- divide -->
<g id="node27" class="node">
<title>divide</title>
<ellipse fill="none" stroke="#000000" cx="798.0993" cy="-204.8069" rx="35.3347" ry="18"/>
<ellipse fill="none" stroke="#000000" cx="798.0993" cy="-204.8069" rx="39.3527" ry="22"/>
<text text-anchor="middle" x="798.0993" y="-200.6069" font-family="Times,serif" font-size="14.00" fill="#000000">divide</text>
</g>
<!-- S&#45;&gt;divide -->
<g id="edge31" class="edge">
<title>S&#45;&gt;divide</title>
<path fill="none" stroke="#000000" d="M1030.467,-1629.1886C1005.9662,-1479.0021 835.4151,-433.5477 803.3055,-236.7206"/>
<polygon fill="#000000" stroke="#000000" points="806.7401,-236.0351 801.6756,-226.7291 799.8314,-237.1622 806.7401,-236.0351"/>
<text text-anchor="middle" x="914.941" y="-937.1546" font-family="Times,serif" font-size="14.00" fill="#000000">/</text>
</g>
<!-- less -->
<g id="node32" class="node">
<title>less</title>
<ellipse fill="none" stroke="#000000" cx="1696.1781" cy="-541.8525" rx="27" ry="18"/>
<ellipse fill="none" stroke="#000000" cx="1696.1781" cy="-541.8525" rx="31" ry="22"/>
<text text-anchor="middle" x="1696.1781" y="-537.6525" font-family="Times,serif" font-size="14.00" fill="#000000">less</text>
</g>
<!-- S&#45;&gt;less -->
<g id="edge36" class="edge">
<title>S&#45;&gt;less</title>
<path fill="none" stroke="#000000" d="M1043.5449,-1630.2447C1118.1963,-1505.7491 1582.2542,-731.8426 1678.6532,-571.0786"/>
<polygon fill="#000000" stroke="#000000" points="1681.8295,-572.5873 1683.9704,-562.2111 1675.826,-568.9875 1681.8295,-572.5873"/>
<text text-anchor="middle" x="1357.1517" y="-1104.8617" font-family="Times,serif" font-size="14.00" fill="#000000">&lt;</text>
</g>
<!-- greater -->
<g id="node36" class="node">
<title>greater</title>
<ellipse fill="none" stroke="#000000" cx="1895.2449" cy="-1301.1751" rx="37.6928" ry="18"/>
<ellipse fill="none" stroke="#000000" cx="1895.2449" cy="-1301.1751" rx="41.6774" ry="22"/>
<text text-anchor="middle" x="1895.2449" y="-1296.9751" font-family="Times,serif" font-size="14.00" fill="#000000">greater</text>
</g>
<!-- S&#45;&gt;greater -->
<g id="edge40" class="edge">
<title>S&#45;&gt;greater</title>
<path fill="none" stroke="#000000" d="M1056.8987,-1637.7304C1174.2408,-1590.6233 1697.2258,-1380.6701 1851.9743,-1318.5461"/>
<polygon fill="#000000" stroke="#000000" points="1853.6504,-1321.6448 1861.6265,-1314.6712 1851.0425,-1315.1488 1853.6504,-1321.6448"/>
<text text-anchor="middle" x="1450.4892" y="-1482.3383" font-family="Times,serif" font-size="14.00" fill="#000000">&gt;</text>
</g>
<!-- variable&#45;&gt;variable -->
<g id="edge2" class="edge">
<title>variable&#45;&gt;variable</title>
<path fill="none" stroke="#000000" d="M2070.1849,-1653.8446C2081.6275,-1653.434 2090.2558,-1651.2072 2090.2558,-1647.1643 2090.2558,-1644.4479 2086.3609,-1642.5514 2080.3343,-1641.4747"/>
<polygon fill="#000000" stroke="#000000" points="2080.4777,-1637.9721 2070.1849,-1640.4839 2079.7975,-1644.939 2080.4777,-1637.9721"/>
<text text-anchor="middle" x="2123.2909" y="-1642.9643" font-family="Times,serif" font-size="14.00" fill="#000000">a&#45;zA&#45;Z0&#45;9_</text>
</g>
<!-- keyword&#45;&gt;keyword -->
<g id="edge4" class="edge">
<title>keyword&#45;&gt;keyword</title>
<path fill="none" stroke="#000000" d="M2058.9516,-1902.3292C2070.4096,-1901.837 2078.9366,-1899.6221 2078.9366,-1895.6846 2078.9366,-1893.0391 2075.0874,-1891.1712 2069.0862,-1890.081"/>
<polygon fill="#000000" stroke="#000000" points="2069.2569,-1886.5802 2058.9516,-1889.0401 2068.5416,-1893.5436 2069.2569,-1886.5802"/>
<text text-anchor="middle" x="2111.9717" y="-1891.4846" font-family="Times,serif" font-size="14.00" fill="#000000">a&#45;zA&#45;Z0&#45;9_</text>
</g>
<!-- integer&#45;&gt;integer -->
<g id="edge6" class="edge">
<title>integer&#45;&gt;integer</title>
<path fill="none" stroke="#000000" d="M1908.1287,-2201.9949C1919.3601,-2201.7007 1927.9816,-2199.4619 1927.9816,-2195.2783 1927.9816,-2192.4674 1924.0897,-2190.5344 1918.1293,-2189.4793"/>
<polygon fill="#000000" stroke="#000000" points="1918.4067,-2185.9902 1908.1287,-2188.5616 1917.767,-2192.9609 1918.4067,-2185.9902"/>
<text text-anchor="middle" x="1937.3119" y="-2191.0783" font-family="Times,serif" font-size="14.00" fill="#000000">0&#45;9</text>
</g>
<!-- floating -->
<g id="node5" class="node">
<title>floating</title>
<ellipse fill="none" stroke="#000000" cx="2013.6481" cy="-2290.8287" rx="41.1424" ry="18"/>
<ellipse fill="none" stroke="#000000" cx="2013.6481" cy="-2290.8287" rx="45.149" ry="22"/>
<text text-anchor="middle" x="2013.6481" y="-2286.6287" font-family="Times,serif" font-size="14.00" fill="#000000">floating</text>
</g>
<!-- integer&#45;&gt;floating -->
<g id="edge7" class="edge">
<title>integer&#45;&gt;floating</title>
<path fill="none" stroke="#000000" d="M1894.4843,-2212.5817C1917.8838,-2227.9467 1952.274,-2250.5284 1978.1028,-2267.4885"/>
<polygon fill="#000000" stroke="#000000" points="1976.2256,-2270.4429 1986.5057,-2273.0061 1980.0678,-2264.5916 1976.2256,-2270.4429"/>
<text text-anchor="middle" x="1934.5436" y="-2244.2351" font-family="Times,serif" font-size="14.00" fill="#000000">.</text>
</g>
<!-- floating&#45;&gt;floating -->
<g id="edge8" class="edge">
<title>floating&#45;&gt;floating</title>
<path fill="none" stroke="#000000" d="M2056.6896,-2297.5194C2068.0888,-2297.137 2076.7225,-2294.9068 2076.7225,-2290.8287 2076.7225,-2288.0887 2072.8251,-2286.1829 2066.8101,-2285.1112"/>
<polygon fill="#000000" stroke="#000000" points="2066.9787,-2281.6114 2056.6896,-2284.138 2066.3086,-2288.5792 2066.9787,-2281.6114"/>
<text text-anchor="middle" x="2086.0528" y="-2286.6287" font-family="Times,serif" font-size="14.00" fill="#000000">0&#45;9</text>
</g>
<!-- doubleEqu -->
<g id="node9" class="node">
<title>doubleEqu</title>
<ellipse fill="none" stroke="#000000" cx="1448.9581" cy="-3000.7979" rx="52.7546" ry="18"/>
<text text-anchor="middle" x="1448.9581" y="-2996.5979" font-family="Times,serif" font-size="14.00" fill="#000000">doubleEqu</text>
</g>
<!-- assign&#45;&gt;doubleEqu -->
<g id="edge12" class="edge">
<title>assign&#45;&gt;doubleEqu</title>
<path fill="none" stroke="#000000" d="M1387.1952,-2799.6126C1399.7103,-2840.3789 1426.6463,-2928.1198 1440.4392,-2973.0487"/>
<polygon fill="#000000" stroke="#000000" points="1437.1294,-2974.1937 1443.4101,-2982.7262 1443.8212,-2972.1393 1437.1294,-2974.1937"/>
<text text-anchor="middle" x="1409.8699" y="-2890.5307" font-family="Times,serif" font-size="14.00" fill="#000000">=</text>
</g>
<!-- equal -->
<g id="node10" class="node">
<title>equal</title>
<ellipse fill="none" stroke="#000000" cx="1516.0635" cy="-3219.386" rx="31.9067" ry="18"/>
<ellipse fill="none" stroke="#000000" cx="1516.0635" cy="-3219.386" rx="35.9012" ry="22"/>
<text text-anchor="middle" x="1516.0635" y="-3215.186" font-family="Times,serif" font-size="14.00" fill="#000000">equal</text>
</g>
<!-- doubleEqu&#45;&gt;equal -->
<g id="edge13" class="edge">
<title>doubleEqu&#45;&gt;equal</title>
<path fill="none" stroke="#000000" d="M1454.564,-3019.0586C1465.9853,-3056.2621 1492.0718,-3141.236 1506.3253,-3187.6648"/>
<polygon fill="#000000" stroke="#000000" points="1503.064,-3188.9678 1509.3447,-3197.5003 1509.7558,-3186.9134 1503.064,-3188.9678"/>
<text text-anchor="middle" x="1476.4973" y="-3107.5617" font-family="Times,serif" font-size="14.00" fill="#000000">=</text>
</g>
<!-- exclEqu -->
<g id="node12" class="node">
<title>exclEqu</title>
<ellipse fill="none" stroke="#000000" cx="971.9703" cy="-3132.1793" rx="42.8577" ry="18"/>
<text text-anchor="middle" x="971.9703" y="-3127.9793" font-family="Times,serif" font-size="14.00" fill="#000000">exclEqu</text>
</g>
<!-- exclMark&#45;&gt;exclEqu -->
<g id="edge15" class="edge">
<title>exclMark&#45;&gt;exclEqu</title>
<path fill="none" stroke="#000000" d="M981.3509,-2905.409C979.4805,-2950.6242 975.2171,-3053.6904 973.1447,-3103.7895"/>
<polygon fill="#000000" stroke="#000000" points="969.6421,-3103.7821 972.7257,-3113.9183 976.6361,-3104.0715 969.6421,-3103.7821"/>
<text text-anchor="middle" x="973.3005" y="-3008.7992" font-family="Times,serif" font-size="14.00" fill="#000000">=</text>
</g>
<!-- notEqual -->
<g id="node13" class="node">
<title>notEqual</title>
<ellipse fill="none" stroke="#000000" cx="961.8078" cy="-3377.851" rx="45.8156" ry="18"/>
<ellipse fill="none" stroke="#000000" cx="961.8078" cy="-3377.851" rx="49.8079" ry="22"/>
<text text-anchor="middle" x="961.8078" y="-3373.651" font-family="Times,serif" font-size="14.00" fill="#000000">notEqual</text>
</g>
<!-- exclEqu&#45;&gt;notEqual -->
<g id="edge16" class="edge">
<title>exclEqu&#45;&gt;notEqual</title>
<path fill="none" stroke="#000000" d="M971.223,-3150.2441C969.5163,-3191.5041 965.3124,-3293.1289 963.1462,-3345.4974"/>
<polygon fill="#000000" stroke="#000000" points="959.6453,-3345.4476 962.7289,-3355.5837 966.6393,-3345.737 959.6453,-3345.4476"/>
<text text-anchor="middle" x="963.2373" y="-3252.0708" font-family="Times,serif" font-size="14.00" fill="#000000">=</text>
</g>
<!-- stringRead&#45;&gt;stringRead -->
<g id="edge18" class="edge">
<title>stringRead&#45;&gt;stringRead</title>
<path fill="none" stroke="#000000" d="M658.5881,-2874.2462C670.9047,-2873.7806 680.1106,-2871.5615 680.1106,-2867.5889 680.1106,-2864.7956 675.5593,-2862.8693 668.5756,-2861.8098"/>
<polygon fill="#000000" stroke="#000000" points="668.8563,-2858.3211 658.5881,-2860.9316 668.2431,-2865.2942 668.8563,-2858.3211"/>
<text text-anchor="middle" x="686.2482" y="-2863.3889" font-family="Times,serif" font-size="14.00" fill="#000000">^&quot;</text>
</g>
<!-- string -->
<g id="node15" class="node">
<title>string</title>
<ellipse fill="none" stroke="#000000" cx="534.5668" cy="-3082.4355" rx="33.059" ry="18"/>
<ellipse fill="none" stroke="#000000" cx="534.5668" cy="-3082.4355" rx="37.0624" ry="22"/>
<text text-anchor="middle" x="534.5668" y="-3078.2355" font-family="Times,serif" font-size="14.00" fill="#000000">string</text>
</g>
<!-- stringRead&#45;&gt;string -->
<g id="edge19" class="edge">
<title>stringRead&#45;&gt;string</title>
<path fill="none" stroke="#000000" d="M602.9994,-2885.537C590.3231,-2922.01 561.4119,-3005.1951 545.5251,-3050.9054"/>
<polygon fill="#000000" stroke="#000000" points="542.1337,-3050.0024 542.1567,-3060.5972 548.7457,-3052.3005 542.1337,-3050.0024"/>
<text text-anchor="middle" x="571.407" y="-2972.4212" font-family="Times,serif" font-size="14.00" fill="#000000">&quot;</text>
</g>
<!-- comment -->
<g id="node28" class="node">
<title>comment</title>
<ellipse fill="none" stroke="#000000" cx="485.5959" cy="-318.8338" rx="46.9516" ry="18"/>
<ellipse fill="none" stroke="#000000" cx="485.5959" cy="-318.8338" rx="50.9497" ry="22"/>
<text text-anchor="middle" x="485.5959" y="-314.6338" font-family="Times,serif" font-size="14.00" fill="#000000">comment</text>
</g>
<!-- divide&#45;&gt;comment -->
<g id="edge32" class="edge">
<title>divide&#45;&gt;comment</title>
<path fill="none" stroke="#000000" d="M765.2466,-216.7943C710.0216,-236.9449 598.3331,-277.698 534.0718,-301.1458"/>
<polygon fill="#000000" stroke="#000000" points="532.7588,-297.8991 524.5643,-304.6149 535.1582,-304.475 532.7588,-297.8991"/>
<text text-anchor="middle" x="647.7139" y="-263.17" font-family="Times,serif" font-size="14.00" fill="#000000">/</text>
</g>
<!-- comStart -->
<g id="node29" class="node">
<title>comStart</title>
<ellipse fill="none" stroke="#000000" cx="950.7001" cy="-149.1256" rx="45.8022" ry="18"/>
<text text-anchor="middle" x="950.7001" y="-144.9256" font-family="Times,serif" font-size="14.00" fill="#000000">comStart</text>
</g>
<!-- divide&#45;&gt;comStart -->
<g id="edge33" class="edge">
<title>divide&#45;&gt;comStart</title>
<path fill="none" stroke="#000000" d="M831.2114,-192.7249C853.477,-184.6006 883.0587,-173.8067 907.2176,-164.9916"/>
<polygon fill="#000000" stroke="#000000" points="908.6667,-168.1886 916.8611,-161.4729 906.2672,-161.6127 908.6667,-168.1886"/>
<text text-anchor="middle" x="865.7145" y="-183.0583" font-family="Times,serif" font-size="14.00" fill="#000000">*</text>
</g>
<!-- comPom -->
<g id="node30" class="node">
<title>comPom</title>
<ellipse fill="none" stroke="#000000" cx="1109.321" cy="-91.2477" rx="45.2458" ry="18"/>
<text text-anchor="middle" x="1109.321" y="-87.0477" font-family="Times,serif" font-size="14.00" fill="#000000">comPom</text>
</g>
<!-- comStart&#45;&gt;comPom -->
<g id="edge34" class="edge">
<title>comStart&#45;&gt;comPom</title>
<path fill="none" stroke="#000000" d="M984.3395,-136.8512C1008.2086,-128.1418 1040.4499,-116.3775 1066.2069,-106.9793"/>
<polygon fill="#000000" stroke="#000000" points="1067.5357,-110.2202 1075.7301,-103.5044 1065.1362,-103.6443 1067.5357,-110.2202"/>
<text text-anchor="middle" x="1021.7732" y="-126.1152" font-family="Times,serif" font-size="14.00" fill="#000000">*</text>
</g>
<!-- comEnd -->
<g id="node31" class="node">
<title>comEnd</title>
<ellipse fill="none" stroke="#000000" cx="1269.2237" cy="-32.9021" rx="43.4227" ry="18"/>
<ellipse fill="none" stroke="#000000" cx="1269.2237" cy="-32.9021" rx="47.4414" ry="22"/>
<text text-anchor="middle" x="1269.2237" y="-28.7021" font-family="Times,serif" font-size="14.00" fill="#000000">comEnd</text>
</g>
<!-- comPom&#45;&gt;comEnd -->
<g id="edge35" class="edge">
<title>comPom&#45;&gt;comEnd</title>
<path fill="none" stroke="#000000" d="M1142.8419,-79.0166C1165.9041,-70.6016 1196.854,-59.3085 1222.3532,-50.0043"/>
<polygon fill="#000000" stroke="#000000" points="1223.6369,-53.2617 1231.8314,-46.5459 1221.2375,-46.6858 1223.6369,-53.2617"/>
<text text-anchor="middle" x="1180.6523" y="-68.7104" font-family="Times,serif" font-size="14.00" fill="#000000">/</text>
</g>
<!-- prolog -->
<g id="node33" class="node">
<title>prolog</title>
<ellipse fill="none" stroke="#000000" cx="1592.5093" cy="-402.8141" rx="36.4994" ry="18"/>
<text text-anchor="middle" x="1592.5093" y="-398.6141" font-family="Times,serif" font-size="14.00" fill="#000000">prolog</text>
</g>
<!-- less&#45;&gt;prolog -->
<g id="edge37" class="edge">
<title>less&#45;&gt;prolog</title>
<path fill="none" stroke="#000000" d="M1681.5447,-522.2266C1663.112,-497.505 1631.4138,-454.992 1611.2328,-427.9257"/>
<polygon fill="#000000" stroke="#000000" points="1613.9001,-425.6476 1605.1167,-419.7229 1608.2883,-429.8319 1613.9001,-425.6476"/>
<text text-anchor="middle" x="1643.2815" y="-479.2761" font-family="Times,serif" font-size="14.00" fill="#000000">?</text>
</g>
<!-- lessEqual -->
<g id="node35" class="node">
<title>lessEqual</title>
<ellipse fill="none" stroke="#000000" cx="1868.1945" cy="-772.5572" rx="48.0862" ry="18"/>
<ellipse fill="none" stroke="#000000" cx="1868.1945" cy="-772.5572" rx="52.0897" ry="22"/>
<text text-anchor="middle" x="1868.1945" y="-768.3572" font-family="Times,serif" font-size="14.00" fill="#000000">lessEqual</text>
</g>
<!-- less&#45;&gt;lessEqual -->
<g id="edge39" class="edge">
<title>less&#45;&gt;lessEqual</title>
<path fill="none" stroke="#000000" d="M1710.8441,-561.5222C1741.1189,-602.1261 1810.6709,-695.4078 1846.2934,-743.184"/>
<polygon fill="#000000" stroke="#000000" points="1843.5437,-745.3515 1852.3271,-751.2763 1849.1555,-741.1673 1843.5437,-745.3515"/>
<text text-anchor="middle" x="1774.6215" y="-656.5531" font-family="Times,serif" font-size="14.00" fill="#000000">=</text>
</g>
<!-- prologEnd -->
<g id="node34" class="node">
<title>prologEnd</title>
<ellipse fill="none" stroke="#000000" cx="1470.3734" cy="-239.0081" rx="51.6251" ry="18"/>
<ellipse fill="none" stroke="#000000" cx="1470.3734" cy="-239.0081" rx="55.6111" ry="22"/>
<text text-anchor="middle" x="1470.3734" y="-234.8081" font-family="Times,serif" font-size="14.00" fill="#000000">prologEnd</text>
</g>
<!-- prolog&#45;&gt;prologEnd -->
<g id="edge38" class="edge">
<title>prolog&#45;&gt;prologEnd</title>
<path fill="none" stroke="#000000" d="M1579.8986,-385.901C1559.2219,-358.1698 1517.8604,-302.6966 1492.3033,-268.42"/>
<polygon fill="#000000" stroke="#000000" points="1494.9519,-266.1168 1486.1685,-260.1921 1489.3401,-270.3011 1494.9519,-266.1168"/>
<text text-anchor="middle" x="1530.6557" y="-331.3605" font-family="Times,serif" font-size="14.00" fill="#000000">\n</text>
</g>
<!-- greaterEqual -->
<g id="node37" class="node">
<title>greaterEqual</title>
<ellipse fill="none" stroke="#000000" cx="2067.3556" cy="-1232.081" rx="60.2389" ry="18"/>
<ellipse fill="none" stroke="#000000" cx="2067.3556" cy="-1232.081" rx="64.2306" ry="22"/>
<text text-anchor="middle" x="2067.3556" y="-1227.881" font-family="Times,serif" font-size="14.00" fill="#000000">greaterEqual</text>
</g>
<!-- greater&#45;&gt;greaterEqual -->
<g id="edge41" class="edge">
<title>greater&#45;&gt;greaterEqual</title>
<path fill="none" stroke="#000000" d="M1928.8382,-1287.689C1953.7114,-1277.7036 1988.0403,-1263.9222 2016.2996,-1252.5775"/>
<polygon fill="#000000" stroke="#000000" points="2017.6519,-1255.8062 2025.6281,-1248.8326 2015.044,-1249.3101 2017.6519,-1255.8062"/>
<text text-anchor="middle" x="1968.6216" y="-1274.3332" font-family="Times,serif" font-size="14.00" fill="#000000">=</text>
</g>
</g>
</svg>
