<?xml version="1.0" encoding="UTF-8" standalone="no"?>
<!DOCTYPE svg PUBLIC "-//W3C//DTD SVG 1.1//EN"
 "http://www.w3.org/Graphics/SVG/1.1/DTD/svg11.dtd">
<!-- Generated by graphviz version 2.40.1 (20161225.0304)
 -->
<!-- Title: FSM Pages: 1 -->
<svg width="2649pt" height="431pt"
 viewBox="0.00 0.00 2648.50 431.20" xmlns="http://www.w3.org/2000/svg" xmlns:xlink="http://www.w3.org/1999/xlink">
<g id="graph0" class="graph" transform="scale(1 1) rotate(0) translate(4 427.2)">
<title>FSM</title>
<polygon fill="#ffffff" stroke="transparent" points="-4,4 -4,-427.2 2644.5009,-427.2 2644.5009,4 -4,4"/>
<!-- S -->
<g id="node1" class="node">
<title>S</title>
<ellipse fill="none" stroke="#000000" cx="1414.1357" cy="-405.2" rx="27" ry="18"/>
<text text-anchor="middle" x="1414.1357" y="-401" font-family="Times,serif" font-size="14.00" fill="#000000">S</text>
</g>
<!-- variable -->
<g id="node2" class="node">
<title>variable</title>
<ellipse fill="none" stroke="#000000" cx="46.1357" cy="-312.4" rx="42.2601" ry="18"/>
<ellipse fill="none" stroke="#000000" cx="46.1357" cy="-312.4" rx="46.2719" ry="22"/>
<text text-anchor="middle" x="46.1357" y="-308.2" font-family="Times,serif" font-size="14.00" fill="#000000">variable</text>
</g>
<!-- S&#45;&gt;variable -->
<g id="edge1" class="edge">
<title>S&#45;&gt;variable</title>
<path fill="none" stroke="#000000" d="M1387.0676,-404.5867C1249.3244,-401.4079 625.2254,-386.2955 432.1357,-369.2 312.5983,-358.6166 173.6419,-335.4778 99.3965,-322.2306"/>
<polygon fill="#000000" stroke="#000000" points="99.8194,-318.7506 89.3584,-320.4293 98.583,-325.6406 99.8194,-318.7506"/>
<text text-anchor="middle" x="435.6357" y="-356.6" font-family="Times,serif" font-size="14.00" fill="#000000">$</text>
</g>
<!-- keyword -->
<g id="node3" class="node">
<title>keyword</title>
<ellipse fill="none" stroke="#000000" cx="243.1357" cy="-312.4" rx="44.6616" ry="18"/>
<ellipse fill="none" stroke="#000000" cx="243.1357" cy="-312.4" rx="48.6472" ry="22"/>
<text text-anchor="middle" x="243.1357" y="-308.2" font-family="Times,serif" font-size="14.00" fill="#000000">keyword</text>
</g>
<!-- S&#45;&gt;keyword -->
<g id="edge3" class="edge">
<title>S&#45;&gt;keyword</title>
<path fill="none" stroke="#000000" d="M1387.1505,-404.5736C1260.231,-401.5502 721.8767,-387.8451 554.7261,-369.2 463.4881,-359.0227 358.7281,-337.9615 296.8892,-324.5415"/>
<polygon fill="#000000" stroke="#000000" points="297.4869,-321.0896 286.9703,-322.3744 295.9927,-327.9282 297.4869,-321.0896"/>
<text text-anchor="middle" x="575.3405" y="-356.6" font-family="Times,serif" font-size="14.00" fill="#000000">a&#45;zA&#45;Z</text>
</g>
<!-- integer -->
<g id="node4" class="node">
<title>integer</title>
<ellipse fill="none" stroke="#000000" cx="436.1357" cy="-312.4" rx="37.713" ry="18"/>
<ellipse fill="none" stroke="#000000" cx="436.1357" cy="-312.4" rx="41.6986" ry="22"/>
<text text-anchor="middle" x="436.1357" y="-308.2" font-family="Times,serif" font-size="14.00" fill="#000000">integer</text>
</g>
<!-- S&#45;&gt;integer -->
<g id="edge5" class="edge">
<title>S&#45;&gt;integer</title>
<path fill="none" stroke="#000000" d="M1386.9486,-404.4137C1272.4634,-401.0154 829.1279,-386.9566 690.4751,-369.2 617.0586,-359.7979 533.6095,-339.217 482.9313,-325.5842"/>
<polygon fill="#000000" stroke="#000000" points="483.8129,-322.1969 473.2453,-322.9556 481.9795,-328.9526 483.8129,-322.1969"/>
<text text-anchor="middle" x="700.466" y="-356.6" font-family="Times,serif" font-size="14.00" fill="#000000">0&#45;9</text>
</g>
<!-- semicolon -->
<g id="node6" class="node">
<title>semicolon</title>
<ellipse fill="none" stroke="#000000" cx="587.1357" cy="-312.4" rx="50.9449" ry="18"/>
<ellipse fill="none" stroke="#000000" cx="587.1357" cy="-312.4" rx="54.9618" ry="22"/>
<text text-anchor="middle" x="587.1357" y="-308.2" font-family="Times,serif" font-size="14.00" fill="#000000">semicolon</text>
</g>
<!-- S&#45;&gt;semicolon -->
<g id="edge9" class="edge">
<title>S&#45;&gt;semicolon</title>
<path fill="none" stroke="#000000" d="M1387.0609,-404.2791C1283.3387,-400.6503 911.2588,-386.6785 794.2451,-369.2 729.5057,-359.5298 713.9563,-352.7925 651.1357,-334.4 646.8333,-333.1403 642.3916,-331.7674 637.9477,-330.343"/>
<polygon fill="#000000" stroke="#000000" points="638.862,-326.9595 628.2692,-327.1665 636.6791,-333.6104 638.862,-326.9595"/>
<text text-anchor="middle" x="797.081" y="-356.6" font-family="Times,serif" font-size="14.00" fill="#000000">;</text>
</g>
<!-- colon -->
<g id="node7" class="node">
<title>colon</title>
<ellipse fill="none" stroke="#000000" cx="696.1357" cy="-312.4" rx="32.4855" ry="18"/>
<ellipse fill="none" stroke="#000000" cx="696.1357" cy="-312.4" rx="36.4846" ry="22"/>
<text text-anchor="middle" x="696.1357" y="-308.2" font-family="Times,serif" font-size="14.00" fill="#000000">colon</text>
</g>
<!-- S&#45;&gt;colon -->
<g id="edge10" class="edge">
<title>S&#45;&gt;colon</title>
<path fill="none" stroke="#000000" d="M1387.0184,-404.6818C1310.3641,-402.9196 1085.6868,-395.7001 901.2451,-369.2 829.594,-358.9053 810.6,-357.9055 742.1357,-334.4 739.2157,-333.3975 736.2376,-332.2598 733.2714,-331.0425"/>
<polygon fill="#000000" stroke="#000000" points="734.488,-327.7544 723.9237,-326.9506 731.6809,-334.1669 734.488,-327.7544"/>
<text text-anchor="middle" x="904.081" y="-356.6" font-family="Times,serif" font-size="14.00" fill="#000000">:</text>
</g>
<!-- assign -->
<g id="node8" class="node">
<title>assign</title>
<ellipse fill="none" stroke="#000000" cx="790.1357" cy="-312.4" rx="35.3328" ry="18"/>
<ellipse fill="none" stroke="#000000" cx="790.1357" cy="-312.4" rx="39.3508" ry="22"/>
<text text-anchor="middle" x="790.1357" y="-308.2" font-family="Times,serif" font-size="14.00" fill="#000000">assign</text>
</g>
<!-- S&#45;&gt;assign -->
<g id="edge11" class="edge">
<title>S&#45;&gt;assign</title>
<path fill="none" stroke="#000000" d="M1386.8704,-403.3794C1324.341,-399.0374 1165.8616,-387.0848 1034.2411,-369.2 946.5275,-357.2814 922.631,-360.7871 838.1357,-334.4 835.0294,-333.4299 831.8616,-332.3058 828.709,-331.0891"/>
<polygon fill="#000000" stroke="#000000" points="829.9522,-327.8157 819.374,-327.2223 827.2734,-334.2829 829.9522,-327.8157"/>
<text text-anchor="middle" x="1039.083" y="-356.6" font-family="Times,serif" font-size="14.00" fill="#000000">=</text>
</g>
<!-- exclMark -->
<g id="node11" class="node">
<title>exclMark</title>
<ellipse fill="none" stroke="#000000" cx="899.1357" cy="-312.4" rx="48.0695" ry="18"/>
<ellipse fill="none" stroke="#000000" cx="899.1357" cy="-312.4" rx="52.0723" ry="22"/>
<text text-anchor="middle" x="899.1357" y="-308.2" font-family="Times,serif" font-size="14.00" fill="#000000">exclMark</text>
</g>
<!-- S&#45;&gt;exclMark -->
<g id="edge14" class="edge">
<title>S&#45;&gt;exclMark</title>
<path fill="none" stroke="#000000" d="M1387.1642,-402.8129C1316.3001,-396.1518 1119.3406,-375.1227 960.1357,-334.4 955.848,-333.3032 951.4386,-332.0245 947.0461,-330.6456"/>
<polygon fill="#000000" stroke="#000000" points="948.1039,-327.3091 937.5108,-327.4986 945.91,-333.9564 948.1039,-327.3091"/>
<text text-anchor="middle" x="1123.466" y="-356.6" font-family="Times,serif" font-size="14.00" fill="#000000">!</text>
</g>
<!-- stringRead -->
<g id="node14" class="node">
<title>stringRead</title>
<ellipse fill="none" stroke="#000000" cx="1022.1357" cy="-312.4" rx="52.7469" ry="18"/>
<text text-anchor="middle" x="1022.1357" y="-308.2" font-family="Times,serif" font-size="14.00" fill="#000000">stringRead</text>
</g>
<!-- S&#45;&gt;stringRead -->
<g id="edge17" class="edge">
<title>S&#45;&gt;stringRead</title>
<path fill="none" stroke="#000000" d="M1388.3263,-399.363C1357.2491,-392.3134 1303.4812,-380.0488 1257.4251,-369.2 1194.7991,-354.4481 1122.9203,-337.0243 1075.2582,-325.4015"/>
<polygon fill="#000000" stroke="#000000" points="1076.0119,-321.9828 1065.4673,-323.0124 1074.3525,-328.7833 1076.0119,-321.9828"/>
<text text-anchor="middle" x="1260.991" y="-356.6" font-family="Times,serif" font-size="14.00" fill="#000000">&quot;</text>
</g>
<!-- comma -->
<g id="node16" class="node">
<title>comma</title>
<ellipse fill="none" stroke="#000000" cx="1166.1357" cy="-312.4" rx="39.4288" ry="18"/>
<ellipse fill="none" stroke="#000000" cx="1166.1357" cy="-312.4" rx="43.4254" ry="22"/>
<text text-anchor="middle" x="1166.1357" y="-308.2" font-family="Times,serif" font-size="14.00" fill="#000000">comma</text>
</g>
<!-- S&#45;&gt;comma -->
<g id="edge20" class="edge">
<title>S&#45;&gt;comma</title>
<path fill="none" stroke="#000000" d="M1389.8406,-396.8943C1352.6446,-384.0725 1279.4446,-358.4224 1218.1357,-334.4 1215.0782,-333.202 1211.9305,-331.9408 1208.7684,-330.6535"/>
<polygon fill="#000000" stroke="#000000" points="1209.8944,-327.3318 1199.3155,-326.7501 1207.2226,-333.8019 1209.8944,-327.3318"/>
<text text-anchor="middle" x="1310.8857" y="-356.6" font-family="Times,serif" font-size="14.00" fill="#000000">,</text>
</g>
<!-- dot -->
<g id="node17" class="node">
<title>dot</title>
<ellipse fill="none" stroke="#000000" cx="1258.1357" cy="-312.4" rx="27" ry="18"/>
<ellipse fill="none" stroke="#000000" cx="1258.1357" cy="-312.4" rx="31" ry="22"/>
<text text-anchor="middle" x="1258.1357" y="-308.2" font-family="Times,serif" font-size="14.00" fill="#000000">dot</text>
</g>
<!-- S&#45;&gt;dot -->
<g id="edge21" class="edge">
<title>S&#45;&gt;dot</title>
<path fill="none" stroke="#000000" d="M1393.7415,-393.068C1367.5826,-377.5069 1321.8933,-350.3276 1290.8482,-331.8597"/>
<polygon fill="#000000" stroke="#000000" points="1292.4993,-328.7695 1282.1156,-326.6649 1288.9205,-334.7855 1292.4993,-328.7695"/>
<text text-anchor="middle" x="1351.8857" y="-356.6" font-family="Times,serif" font-size="14.00" fill="#000000">.</text>
</g>
<!-- Lbracket -->
<g id="node18" class="node">
<title>Lbracket</title>
<ellipse fill="none" stroke="#000000" cx="1356.1357" cy="-312.4" rx="45.2154" ry="18"/>
<ellipse fill="none" stroke="#000000" cx="1356.1357" cy="-312.4" rx="49.2034" ry="22"/>
<text text-anchor="middle" x="1356.1357" y="-308.2" font-family="Times,serif" font-size="14.00" fill="#000000">Lbracket</text>
</g>
<!-- S&#45;&gt;Lbracket -->
<g id="edge22" class="edge">
<title>S&#45;&gt;Lbracket</title>
<path fill="none" stroke="#000000" d="M1403.4976,-388.179C1395.515,-375.4068 1384.379,-357.5892 1374.9107,-342.4399"/>
<polygon fill="#000000" stroke="#000000" points="1377.8331,-340.5119 1369.5651,-333.8869 1371.8971,-344.222 1377.8331,-340.5119"/>
<text text-anchor="middle" x="1393.466" y="-356.6" font-family="Times,serif" font-size="14.00" fill="#000000">(</text>
</g>
<!-- Rbracket -->
<g id="node19" class="node">
<title>Rbracket</title>
<ellipse fill="none" stroke="#000000" cx="1473.1357" cy="-312.4" rx="45.7934" ry="18"/>
<ellipse fill="none" stroke="#000000" cx="1473.1357" cy="-312.4" rx="49.7848" ry="22"/>
<text text-anchor="middle" x="1473.1357" y="-308.2" font-family="Times,serif" font-size="14.00" fill="#000000">Rbracket</text>
</g>
<!-- S&#45;&gt;Rbracket -->
<g id="edge23" class="edge">
<title>S&#45;&gt;Rbracket</title>
<path fill="none" stroke="#000000" d="M1424.6838,-388.6092C1432.8298,-375.7965 1444.3193,-357.7249 1454.0655,-342.3952"/>
<polygon fill="#000000" stroke="#000000" points="1457.1524,-344.0633 1459.5641,-333.7466 1451.2452,-340.3076 1457.1524,-344.0633"/>
<text text-anchor="middle" x="1450.466" y="-356.6" font-family="Times,serif" font-size="14.00" fill="#000000">)</text>
</g>
<!-- Lcurly -->
<g id="node20" class="node">
<title>Lcurly</title>
<ellipse fill="none" stroke="#000000" cx="1582.1357" cy="-312.4" rx="36.579" ry="18"/>
<ellipse fill="none" stroke="#000000" cx="1582.1357" cy="-312.4" rx="40.5573" ry="22"/>
<text text-anchor="middle" x="1582.1357" y="-308.2" font-family="Times,serif" font-size="14.00" fill="#000000">Lcurly</text>
</g>
<!-- S&#45;&gt;Lcurly -->
<g id="edge24" class="edge">
<title>S&#45;&gt;Lcurly</title>
<path fill="none" stroke="#000000" d="M1435.0734,-393.6345C1462.4096,-378.5344 1510.744,-351.8355 1544.5131,-333.182"/>
<polygon fill="#000000" stroke="#000000" points="1546.5609,-336.0494 1553.622,-328.1505 1543.1763,-329.922 1546.5609,-336.0494"/>
<text text-anchor="middle" x="1512.495" y="-356.6" font-family="Times,serif" font-size="14.00" fill="#000000">{</text>
</g>
<!-- Rcurly -->
<g id="node21" class="node">
<title>Rcurly</title>
<ellipse fill="none" stroke="#000000" cx="1682.1357" cy="-312.4" rx="37.1559" ry="18"/>
<ellipse fill="none" stroke="#000000" cx="1682.1357" cy="-312.4" rx="41.1385" ry="22"/>
<text text-anchor="middle" x="1682.1357" y="-308.2" font-family="Times,serif" font-size="14.00" fill="#000000">Rcurly</text>
</g>
<!-- S&#45;&gt;Rcurly -->
<g id="edge25" class="edge">
<title>S&#45;&gt;Rcurly</title>
<path fill="none" stroke="#000000" d="M1438.9362,-398.0323C1479.6839,-386.0586 1563.1628,-360.6981 1632.1357,-334.4 1635.1486,-333.2512 1638.2432,-332.0196 1641.3445,-330.7473"/>
<polygon fill="#000000" stroke="#000000" points="1642.7374,-333.9585 1650.5943,-326.8507 1640.0198,-327.5075 1642.7374,-333.9585"/>
<text text-anchor="middle" x="1582.495" y="-356.6" font-family="Times,serif" font-size="14.00" fill="#000000">}</text>
</g>
<!-- Lsquare -->
<g id="node22" class="node">
<title>Lsquare</title>
<ellipse fill="none" stroke="#000000" cx="1787.1357" cy="-312.4" rx="42.2619" ry="18"/>
<ellipse fill="none" stroke="#000000" cx="1787.1357" cy="-312.4" rx="46.2738" ry="22"/>
<text text-anchor="middle" x="1787.1357" y="-308.2" font-family="Times,serif" font-size="14.00" fill="#000000">Lsquare</text>
</g>
<!-- S&#45;&gt;Lsquare -->
<g id="edge26" class="edge">
<title>S&#45;&gt;Lsquare</title>
<path fill="none" stroke="#000000" d="M1440.5349,-401.0058C1495.5839,-391.8946 1626.3071,-368.3489 1732.1357,-334.4 1735.6733,-333.2652 1739.3077,-332.0125 1742.9412,-330.6979"/>
<polygon fill="#000000" stroke="#000000" points="1744.3588,-333.9043 1752.4897,-327.1118 1741.8976,-327.3512 1744.3588,-333.9043"/>
<text text-anchor="middle" x="1666.466" y="-356.6" font-family="Times,serif" font-size="14.00" fill="#000000">[</text>
</g>
<!-- Rsquare -->
<g id="node23" class="node">
<title>Rsquare</title>
<ellipse fill="none" stroke="#000000" cx="1898.1357" cy="-312.4" rx="42.8404" ry="18"/>
<ellipse fill="none" stroke="#000000" cx="1898.1357" cy="-312.4" rx="46.8557" ry="22"/>
<text text-anchor="middle" x="1898.1357" y="-308.2" font-family="Times,serif" font-size="14.00" fill="#000000">Rsquare</text>
</g>
<!-- S&#45;&gt;Rsquare -->
<g id="edge27" class="edge">
<title>S&#45;&gt;Rsquare</title>
<path fill="none" stroke="#000000" d="M1441.2046,-403.081C1509.6134,-397.2227 1694.4903,-378.2513 1842.1357,-334.4 1845.9142,-333.2778 1849.7954,-332.0084 1853.6671,-330.6596"/>
<polygon fill="#000000" stroke="#000000" points="1855.0107,-333.8952 1863.2072,-327.182 1852.6133,-327.3185 1855.0107,-333.8952"/>
<text text-anchor="middle" x="1776.466" y="-356.6" font-family="Times,serif" font-size="14.00" fill="#000000">]</text>
</g>
<!-- add -->
<g id="node24" class="node">
<title>add</title>
<ellipse fill="none" stroke="#000000" cx="1994.1357" cy="-312.4" rx="27" ry="18"/>
<ellipse fill="none" stroke="#000000" cx="1994.1357" cy="-312.4" rx="31" ry="22"/>
<text text-anchor="middle" x="1994.1357" y="-308.2" font-family="Times,serif" font-size="14.00" fill="#000000">add</text>
</g>
<!-- S&#45;&gt;add -->
<g id="edge28" class="edge">
<title>S&#45;&gt;add</title>
<path fill="none" stroke="#000000" d="M1441.1069,-403.5293C1502.2193,-399.534 1655.829,-388.3117 1783.1357,-369.2 1859.8341,-357.6858 1881.3281,-361.1259 1954.1357,-334.4 1956.5445,-333.5158 1958.9837,-332.5034 1961.4072,-331.4094"/>
<polygon fill="#000000" stroke="#000000" points="1963.1598,-334.4475 1970.5785,-326.8835 1960.0621,-328.1702 1963.1598,-334.4475"/>
<text text-anchor="middle" x="1898.083" y="-356.6" font-family="Times,serif" font-size="14.00" fill="#000000">+</text>
</g>
<!-- sub -->
<g id="node25" class="node">
<title>sub</title>
<ellipse fill="none" stroke="#000000" cx="2074.1357" cy="-312.4" rx="27" ry="18"/>
<ellipse fill="none" stroke="#000000" cx="2074.1357" cy="-312.4" rx="31" ry="22"/>
<text text-anchor="middle" x="2074.1357" y="-308.2" font-family="Times,serif" font-size="14.00" fill="#000000">sub</text>
</g>
<!-- S&#45;&gt;sub -->
<g id="edge29" class="edge">
<title>S&#45;&gt;sub</title>
<path fill="none" stroke="#000000" d="M1441.281,-403.9037C1530.7037,-399.5251 1815.4884,-384.6902 1906.1357,-369.2 1964.2473,-359.2696 1979.4786,-356.4943 2034.1357,-334.4 2036.5146,-333.4384 2038.9315,-332.3681 2041.3388,-331.2321"/>
<polygon fill="#000000" stroke="#000000" points="2043.1285,-334.2493 2050.4751,-326.6152 2039.9713,-328.0017 2043.1285,-334.2493"/>
<text text-anchor="middle" x="1987.466" y="-356.6" font-family="Times,serif" font-size="14.00" fill="#000000">&#45;</text>
</g>
<!-- mul -->
<g id="node26" class="node">
<title>mul</title>
<ellipse fill="none" stroke="#000000" cx="2154.1357" cy="-312.4" rx="27" ry="18"/>
<ellipse fill="none" stroke="#000000" cx="2154.1357" cy="-312.4" rx="31" ry="22"/>
<text text-anchor="middle" x="2154.1357" y="-308.2" font-family="Times,serif" font-size="14.00" fill="#000000">mul</text>
</g>
<!-- S&#45;&gt;mul -->
<g id="edge30" class="edge">
<title>S&#45;&gt;mul</title>
<path fill="none" stroke="#000000" d="M1441.1762,-404.3125C1540.5891,-400.9268 1885.6683,-388.0564 1994.1357,-369.2 2048.8459,-359.689 2062.8289,-355.6431 2114.1357,-334.4 2116.36,-333.4791 2118.6196,-332.467 2120.8747,-331.3983"/>
<polygon fill="#000000" stroke="#000000" points="2122.6741,-334.4105 2130.0192,-326.775 2119.5157,-328.1635 2122.6741,-334.4105"/>
<text text-anchor="middle" x="2071.6357" y="-356.6" font-family="Times,serif" font-size="14.00" fill="#000000">*</text>
</g>
<!-- divide -->
<g id="node27" class="node">
<title>divide</title>
<ellipse fill="none" stroke="#000000" cx="2242.1357" cy="-312.4" rx="35.3347" ry="18"/>
<ellipse fill="none" stroke="#000000" cx="2242.1357" cy="-312.4" rx="39.3527" ry="22"/>
<text text-anchor="middle" x="2242.1357" y="-308.2" font-family="Times,serif" font-size="14.00" fill="#000000">divide</text>
</g>
<!-- S&#45;&gt;divide -->
<g id="edge31" class="edge">
<title>S&#45;&gt;divide</title>
<path fill="none" stroke="#000000" d="M1441.3395,-404.5967C1550.0483,-402.0516 1953.4459,-391.289 2079.1357,-369.2 2131.7298,-359.957 2144.1929,-353.3016 2194.1357,-334.4 2197.0427,-333.2998 2200.0216,-332.1052 2203.0025,-330.8603"/>
<polygon fill="#000000" stroke="#000000" points="2204.6608,-333.9562 2212.444,-326.7678 2201.8769,-327.5336 2204.6608,-333.9562"/>
<text text-anchor="middle" x="2148.081" y="-356.6" font-family="Times,serif" font-size="14.00" fill="#000000">/</text>
</g>
<!-- less -->
<g id="node32" class="node">
<title>less</title>
<ellipse fill="none" stroke="#000000" cx="2336.1357" cy="-312.4" rx="27" ry="18"/>
<ellipse fill="none" stroke="#000000" cx="2336.1357" cy="-312.4" rx="31" ry="22"/>
<text text-anchor="middle" x="2336.1357" y="-308.2" font-family="Times,serif" font-size="14.00" fill="#000000">less</text>
</g>
<!-- S&#45;&gt;less -->
<g id="edge36" class="edge">
<title>S&#45;&gt;less</title>
<path fill="none" stroke="#000000" d="M1441.1743,-404.6161C1557.0815,-402.0005 2012.4797,-390.5453 2154.1357,-369.2 2215.8311,-359.9035 2231.4903,-355.6948 2290.1357,-334.4 2293.8671,-333.0451 2297.7028,-331.4898 2301.4916,-329.8459"/>
<polygon fill="#000000" stroke="#000000" points="2303.0767,-332.97 2310.7274,-325.6407 2300.176,-326.5992 2303.0767,-332.97"/>
<text text-anchor="middle" x="2241.083" y="-356.6" font-family="Times,serif" font-size="14.00" fill="#000000">&lt;</text>
</g>
<!-- greater -->
<g id="node36" class="node">
<title>greater</title>
<ellipse fill="none" stroke="#000000" cx="2501.1357" cy="-312.4" rx="37.6928" ry="18"/>
<ellipse fill="none" stroke="#000000" cx="2501.1357" cy="-312.4" rx="41.6774" ry="22"/>
<text text-anchor="middle" x="2501.1357" y="-308.2" font-family="Times,serif" font-size="14.00" fill="#000000">greater</text>
</g>
<!-- S&#45;&gt;greater -->
<g id="edge40" class="edge">
<title>S&#45;&gt;greater</title>
<path fill="none" stroke="#000000" d="M1441.2,-404.6838C1566.0904,-402.2022 2087.5065,-390.7239 2249.1357,-369.2 2321.5021,-359.5631 2403.7302,-339.2153 2454.0176,-325.675"/>
<polygon fill="#000000" stroke="#000000" points="2455.2096,-328.9781 2463.9425,-322.9791 2453.3747,-322.2228 2455.2096,-328.9781"/>
<text text-anchor="middle" x="2344.083" y="-356.6" font-family="Times,serif" font-size="14.00" fill="#000000">&gt;</text>
</g>
<!-- variable&#45;&gt;variable -->
<g id="edge2" class="edge">
<title>variable&#45;&gt;variable</title>
<path fill="none" stroke="#000000" d="M88.3874,-321.3731C100.7193,-321.0629 110.2715,-318.0719 110.2715,-312.4 110.2715,-308.412 105.549,-305.7493 98.4584,-304.412"/>
<polygon fill="#000000" stroke="#000000" points="98.6807,-300.9171 88.3874,-303.4269 97.9992,-307.8839 98.6807,-300.9171"/>
<text text-anchor="middle" x="143.3066" y="-308.2" font-family="Times,serif" font-size="14.00" fill="#000000">a&#45;zA&#45;Z0&#45;9_</text>
</g>
<!-- keyword&#45;&gt;keyword -->
<g id="edge4" class="edge">
<title>keyword&#45;&gt;keyword</title>
<path fill="none" stroke="#000000" d="M287.7926,-321.3555C300.3329,-320.9633 309.959,-317.9781 309.959,-312.4 309.959,-308.4779 305.2,-305.8377 298.0152,-304.4794"/>
<polygon fill="#000000" stroke="#000000" points="298.0943,-300.9696 287.7926,-303.4445 297.3892,-307.934 298.0943,-300.9696"/>
<text text-anchor="middle" x="342.9941" y="-308.2" font-family="Times,serif" font-size="14.00" fill="#000000">a&#45;zA&#45;Z0&#45;9_</text>
</g>
<!-- integer&#45;&gt;integer -->
<g id="edge6" class="edge">
<title>integer&#45;&gt;integer</title>
<path fill="none" stroke="#000000" d="M474.4139,-321.3951C486.472,-321.2577 495.9847,-318.2594 495.9847,-312.4 495.9847,-308.3717 491.4885,-305.6956 484.76,-304.3719"/>
<polygon fill="#000000" stroke="#000000" points="484.6962,-300.8507 474.4139,-303.4049 484.0448,-307.8204 484.6962,-300.8507"/>
<text text-anchor="middle" x="505.315" y="-308.2" font-family="Times,serif" font-size="14.00" fill="#000000">0&#45;9</text>
</g>
<!-- floating -->
<g id="node5" class="node">
<title>floating</title>
<ellipse fill="none" stroke="#000000" cx="436.1357" cy="-215.6" rx="41.1424" ry="18"/>
<ellipse fill="none" stroke="#000000" cx="436.1357" cy="-215.6" rx="45.149" ry="22"/>
<text text-anchor="middle" x="436.1357" y="-211.4" font-family="Times,serif" font-size="14.00" fill="#000000">floating</text>
</g>
<!-- integer&#45;&gt;floating -->
<g id="edge7" class="edge">
<title>integer&#45;&gt;floating</title>
<path fill="none" stroke="#000000" d="M436.1357,-289.9488C436.1357,-277.4871 436.1357,-261.7669 436.1357,-247.9949"/>
<polygon fill="#000000" stroke="#000000" points="439.6358,-247.9294 436.1357,-237.9294 432.6358,-247.9295 439.6358,-247.9294"/>
<text text-anchor="middle" x="437.8857" y="-259.8" font-family="Times,serif" font-size="14.00" fill="#000000">.</text>
</g>
<!-- floating&#45;&gt;floating -->
<g id="edge8" class="edge">
<title>floating&#45;&gt;floating</title>
<path fill="none" stroke="#000000" d="M477.387,-224.5802C489.6602,-224.3122 499.2102,-221.3188 499.2102,-215.6 499.2102,-211.579 494.4888,-208.9054 487.4192,-207.5791"/>
<polygon fill="#000000" stroke="#000000" points="487.6748,-204.0877 477.387,-206.6198 487.0084,-211.0559 487.6748,-204.0877"/>
<text text-anchor="middle" x="508.5405" y="-211.4" font-family="Times,serif" font-size="14.00" fill="#000000">0&#45;9</text>
</g>
<!-- doubleEqu -->
<g id="node9" class="node">
<title>doubleEqu</title>
<ellipse fill="none" stroke="#000000" cx="787.1357" cy="-215.6" rx="52.7546" ry="18"/>
<text text-anchor="middle" x="787.1357" y="-211.4" font-family="Times,serif" font-size="14.00" fill="#000000">doubleEqu</text>
</g>
<!-- assign&#45;&gt;doubleEqu -->
<g id="edge12" class="edge">
<title>assign&#45;&gt;doubleEqu</title>
<path fill="none" stroke="#000000" d="M789.4399,-289.9488C789.0137,-276.1964 788.4645,-258.4756 788.0092,-243.7843"/>
<polygon fill="#000000" stroke="#000000" points="791.5056,-243.6089 787.6974,-233.7222 784.5089,-243.8258 791.5056,-243.6089"/>
<text text-anchor="middle" x="793.083" y="-259.8" font-family="Times,serif" font-size="14.00" fill="#000000">=</text>
</g>
<!-- equal -->
<g id="node10" class="node">
<title>equal</title>
<ellipse fill="none" stroke="#000000" cx="787.1357" cy="-118.8" rx="31.9067" ry="18"/>
<ellipse fill="none" stroke="#000000" cx="787.1357" cy="-118.8" rx="35.9012" ry="22"/>
<text text-anchor="middle" x="787.1357" y="-114.6" font-family="Times,serif" font-size="14.00" fill="#000000">equal</text>
</g>
<!-- doubleEqu&#45;&gt;equal -->
<g id="edge13" class="edge">
<title>doubleEqu&#45;&gt;equal</title>
<path fill="none" stroke="#000000" d="M787.1357,-197.3927C787.1357,-184.3992 787.1357,-166.5722 787.1357,-151.181"/>
<polygon fill="#000000" stroke="#000000" points="790.6358,-151.004 787.1357,-141.0041 783.6358,-151.0041 790.6358,-151.004"/>
<text text-anchor="middle" x="791.083" y="-163" font-family="Times,serif" font-size="14.00" fill="#000000">=</text>
</g>
<!-- exclEqu -->
<g id="node12" class="node">
<title>exclEqu</title>
<ellipse fill="none" stroke="#000000" cx="901.1357" cy="-215.6" rx="42.8577" ry="18"/>
<text text-anchor="middle" x="901.1357" y="-211.4" font-family="Times,serif" font-size="14.00" fill="#000000">exclEqu</text>
</g>
<!-- exclMark&#45;&gt;exclEqu -->
<g id="edge15" class="edge">
<title>exclMark&#45;&gt;exclEqu</title>
<path fill="none" stroke="#000000" d="M899.5996,-289.9488C899.8837,-276.1964 900.2499,-258.4756 900.5534,-243.7843"/>
<polygon fill="#000000" stroke="#000000" points="904.0539,-243.7923 900.7613,-233.7222 897.0554,-243.6477 904.0539,-243.7923"/>
<text text-anchor="middle" x="905.083" y="-259.8" font-family="Times,serif" font-size="14.00" fill="#000000">=</text>
</g>
<!-- notEqual -->
<g id="node13" class="node">
<title>notEqual</title>
<ellipse fill="none" stroke="#000000" cx="901.1357" cy="-118.8" rx="45.8156" ry="18"/>
<ellipse fill="none" stroke="#000000" cx="901.1357" cy="-118.8" rx="49.8079" ry="22"/>
<text text-anchor="middle" x="901.1357" y="-114.6" font-family="Times,serif" font-size="14.00" fill="#000000">notEqual</text>
</g>
<!-- exclEqu&#45;&gt;notEqual -->
<g id="edge16" class="edge">
<title>exclEqu&#45;&gt;notEqual</title>
<path fill="none" stroke="#000000" d="M901.1357,-197.3927C901.1357,-184.3992 901.1357,-166.5722 901.1357,-151.181"/>
<polygon fill="#000000" stroke="#000000" points="904.6358,-151.004 901.1357,-141.0041 897.6358,-151.0041 904.6358,-151.004"/>
<text text-anchor="middle" x="905.083" y="-163" font-family="Times,serif" font-size="14.00" fill="#000000">=</text>
</g>
<!-- stringRead&#45;&gt;stringRead -->
<g id="edge18" class="edge">
<title>stringRead&#45;&gt;stringRead</title>
<path fill="none" stroke="#000000" d="M1068.1478,-321.3863C1082.1016,-321.161 1093.009,-318.1656 1093.009,-312.4 1093.009,-308.1208 1087.0008,-305.3676 1078.198,-304.1403"/>
<polygon fill="#000000" stroke="#000000" points="1078.3742,-300.644 1068.1478,-303.4137 1077.8694,-307.6258 1078.3742,-300.644"/>
<text text-anchor="middle" x="1099.1466" y="-308.2" font-family="Times,serif" font-size="14.00" fill="#000000">^&quot;</text>
</g>
<!-- string -->
<g id="node15" class="node">
<title>string</title>
<ellipse fill="none" stroke="#000000" cx="1022.1357" cy="-215.6" rx="33.059" ry="18"/>
<ellipse fill="none" stroke="#000000" cx="1022.1357" cy="-215.6" rx="37.0624" ry="22"/>
<text text-anchor="middle" x="1022.1357" y="-211.4" font-family="Times,serif" font-size="14.00" fill="#000000">string</text>
</g>
<!-- stringRead&#45;&gt;string -->
<g id="edge19" class="edge">
<title>stringRead&#45;&gt;string</title>
<path fill="none" stroke="#000000" d="M1022.1357,-294.1927C1022.1357,-281.1992 1022.1357,-263.3722 1022.1357,-247.981"/>
<polygon fill="#000000" stroke="#000000" points="1025.6358,-247.804 1022.1357,-237.8041 1018.6358,-247.8041 1025.6358,-247.804"/>
<text text-anchor="middle" x="1024.991" y="-259.8" font-family="Times,serif" font-size="14.00" fill="#000000">&quot;</text>
</g>
<!-- comment -->
<g id="node28" class="node">
<title>comment</title>
<ellipse fill="none" stroke="#000000" cx="2121.1357" cy="-215.6" rx="46.9516" ry="18"/>
<ellipse fill="none" stroke="#000000" cx="2121.1357" cy="-215.6" rx="50.9497" ry="22"/>
<text text-anchor="middle" x="2121.1357" y="-211.4" font-family="Times,serif" font-size="14.00" fill="#000000">comment</text>
</g>
<!-- divide&#45;&gt;comment -->
<g id="edge32" class="edge">
<title>divide&#45;&gt;comment</title>
<path fill="none" stroke="#000000" d="M2219.3766,-294.1927C2200.7623,-279.3012 2174.2118,-258.0608 2153.4042,-241.4148"/>
<polygon fill="#000000" stroke="#000000" points="2155.4488,-238.5682 2145.4536,-235.0543 2151.0759,-244.0343 2155.4488,-238.5682"/>
<text text-anchor="middle" x="2191.081" y="-259.8" font-family="Times,serif" font-size="14.00" fill="#000000">/</text>
</g>
<!-- comStart -->
<g id="node29" class="node">
<title>comStart</title>
<ellipse fill="none" stroke="#000000" cx="2236.1357" cy="-215.6" rx="45.8022" ry="18"/>
<text text-anchor="middle" x="2236.1357" y="-211.4" font-family="Times,serif" font-size="14.00" fill="#000000">comStart</text>
</g>
<!-- divide&#45;&gt;comStart -->
<g id="edge33" class="edge">
<title>divide&#45;&gt;comStart</title>
<path fill="none" stroke="#000000" d="M2240.7441,-289.9488C2239.8917,-276.1964 2238.7933,-258.4756 2237.8827,-243.7843"/>
<polygon fill="#000000" stroke="#000000" points="2241.371,-243.4864 2237.259,-233.7222 2234.3845,-243.9196 2241.371,-243.4864"/>
<text text-anchor="middle" x="2243.6357" y="-259.8" font-family="Times,serif" font-size="14.00" fill="#000000">*</text>
</g>
<!-- comPom -->
<g id="node30" class="node">
<title>comPom</title>
<ellipse fill="none" stroke="#000000" cx="2222.1357" cy="-118.8" rx="45.2458" ry="18"/>
<text text-anchor="middle" x="2222.1357" y="-114.6" font-family="Times,serif" font-size="14.00" fill="#000000">comPom</text>
</g>
<!-- comStart&#45;&gt;comPom -->
<g id="edge34" class="edge">
<title>comStart&#45;&gt;comPom</title>
<path fill="none" stroke="#000000" d="M2233.5024,-197.3927C2231.4492,-183.1961 2228.5614,-163.2292 2226.2105,-146.9739"/>
<polygon fill="#000000" stroke="#000000" points="2229.6526,-146.3217 2224.7572,-136.9257 2222.7247,-147.3237 2229.6526,-146.3217"/>
<text text-anchor="middle" x="2233.6357" y="-163" font-family="Times,serif" font-size="14.00" fill="#000000">*</text>
</g>
<!-- comEnd -->
<g id="node31" class="node">
<title>comEnd</title>
<ellipse fill="none" stroke="#000000" cx="2222.1357" cy="-22" rx="43.4227" ry="18"/>
<ellipse fill="none" stroke="#000000" cx="2222.1357" cy="-22" rx="47.4414" ry="22"/>
<text text-anchor="middle" x="2222.1357" y="-17.8" font-family="Times,serif" font-size="14.00" fill="#000000">comEnd</text>
</g>
<!-- comPom&#45;&gt;comEnd -->
<g id="edge35" class="edge">
<title>comPom&#45;&gt;comEnd</title>
<path fill="none" stroke="#000000" d="M2222.1357,-100.5927C2222.1357,-87.5992 2222.1357,-69.7722 2222.1357,-54.381"/>
<polygon fill="#000000" stroke="#000000" points="2225.6358,-54.204 2222.1357,-44.2041 2218.6358,-54.2041 2225.6358,-54.204"/>
<text text-anchor="middle" x="2224.081" y="-66.2" font-family="Times,serif" font-size="14.00" fill="#000000">/</text>
</g>
<!-- prolog -->
<g id="node33" class="node">
<title>prolog</title>
<ellipse fill="none" stroke="#000000" cx="2336.1357" cy="-215.6" rx="36.4994" ry="18"/>
<text text-anchor="middle" x="2336.1357" y="-211.4" font-family="Times,serif" font-size="14.00" fill="#000000">prolog</text>
</g>
<!-- less&#45;&gt;prolog -->
<g id="edge37" class="edge">
<title>less&#45;&gt;prolog</title>
<path fill="none" stroke="#000000" d="M2336.1357,-289.9488C2336.1357,-276.1964 2336.1357,-258.4756 2336.1357,-243.7843"/>
<polygon fill="#000000" stroke="#000000" points="2339.6358,-243.7221 2336.1357,-233.7222 2332.6358,-243.7222 2339.6358,-243.7221"/>
<text text-anchor="middle" x="2339.243" y="-259.8" font-family="Times,serif" font-size="14.00" fill="#000000">?</text>
</g>
<!-- lessEqual -->
<g id="node35" class="node">
<title>lessEqual</title>
<ellipse fill="none" stroke="#000000" cx="2442.1357" cy="-215.6" rx="48.0862" ry="18"/>
<ellipse fill="none" stroke="#000000" cx="2442.1357" cy="-215.6" rx="52.0897" ry="22"/>
<text text-anchor="middle" x="2442.1357" y="-211.4" font-family="Times,serif" font-size="14.00" fill="#000000">lessEqual</text>
</g>
<!-- less&#45;&gt;lessEqual -->
<g id="edge39" class="edge">
<title>less&#45;&gt;lessEqual</title>
<path fill="none" stroke="#000000" d="M2355.5778,-294.6454C2371.5807,-280.0314 2394.5177,-259.0851 2412.76,-242.4261"/>
<polygon fill="#000000" stroke="#000000" points="2415.2327,-244.9079 2420.2568,-235.58 2410.5124,-239.7389 2415.2327,-244.9079"/>
<text text-anchor="middle" x="2400.083" y="-259.8" font-family="Times,serif" font-size="14.00" fill="#000000">=</text>
</g>
<!-- prologEnd -->
<g id="node34" class="node">
<title>prologEnd</title>
<ellipse fill="none" stroke="#000000" cx="2341.1357" cy="-118.8" rx="51.6251" ry="18"/>
<ellipse fill="none" stroke="#000000" cx="2341.1357" cy="-118.8" rx="55.6111" ry="22"/>
<text text-anchor="middle" x="2341.1357" y="-114.6" font-family="Times,serif" font-size="14.00" fill="#000000">prologEnd</text>
</g>
<!-- prolog&#45;&gt;prologEnd -->
<g id="edge38" class="edge">
<title>prolog&#45;&gt;prologEnd</title>
<path fill="none" stroke="#000000" d="M2337.0762,-197.3927C2337.7473,-184.3992 2338.6682,-166.5722 2339.4632,-151.181"/>
<polygon fill="#000000" stroke="#000000" points="2342.9682,-151.1713 2339.9888,-141.0041 2335.9776,-150.8102 2342.9682,-151.1713"/>
<text text-anchor="middle" x="2344.581" y="-163" font-family="Times,serif" font-size="14.00" fill="#000000">\n</text>
</g>
<!-- greaterEqual -->
<g id="node37" class="node">
<title>greaterEqual</title>
<ellipse fill="none" stroke="#000000" cx="2576.1357" cy="-215.6" rx="60.2389" ry="18"/>
<ellipse fill="none" stroke="#000000" cx="2576.1357" cy="-215.6" rx="64.2306" ry="22"/>
<text text-anchor="middle" x="2576.1357" y="-211.4" font-family="Times,serif" font-size="14.00" fill="#000000">greaterEqual</text>
</g>
<!-- greater&#45;&gt;greaterEqual -->
<g id="edge41" class="edge">
<title>greater&#45;&gt;greaterEqual</title>
<path fill="none" stroke="#000000" d="M2517.0413,-291.8712C2527.5627,-278.2916 2541.5244,-260.2717 2553.2351,-245.1571"/>
<polygon fill="#000000" stroke="#000000" points="2556.1153,-247.1542 2559.4733,-237.1056 2550.5819,-242.8669 2556.1153,-247.1542"/>
<text text-anchor="middle" x="2547.083" y="-259.8" font-family="Times,serif" font-size="14.00" fill="#000000">=</text>
</g>
</g>
</svg>
